<?xml version="1.0" encoding="UTF-8" standalone="no"?>
<!-- Created with Inkscape (http://www.inkscape.org/) -->

<svg
   width="169.31862"
   height="138.90028"
   viewBox="0 0 44.798883 36.7507"
   version="1.1"
   id="svg1"
   xml:space="preserve"
   inkscape:version="1.4.2 (f4327f4, 2025-05-13)"
   sodipodi:docname="logo-alt.svg"
   xmlns:inkscape="http://www.inkscape.org/namespaces/inkscape"
   xmlns:sodipodi="http://sodipodi.sourceforge.net/DTD/sodipodi-0.dtd"
   xmlns="http://www.w3.org/2000/svg"
   xmlns:svg="http://www.w3.org/2000/svg"><sodipodi:namedview
     id="namedview1"
     pagecolor="#000000"
     bordercolor="#000000"
     borderopacity="0.25"
     inkscape:showpageshadow="2"
     inkscape:pageopacity="0.0"
     inkscape:pagecheckerboard="true"
     inkscape:deskcolor="#d1d1d1"
     inkscape:document-units="px"
     inkscape:zoom="1"
     inkscape:cx="176.5"
     inkscape:cy="44.5"
     inkscape:window-width="1920"
     inkscape:window-height="991"
     inkscape:window-x="-9"
     inkscape:window-y="-9"
     inkscape:window-maximized="1"
     inkscape:current-layer="layer1" /><defs
     id="defs1" /><g
     inkscape:label="Layer 1"
     inkscape:groupmode="layer"
     id="layer1"
     transform="translate(-1022.262,321.44217)"><path
       style="fill:#ffffff;stroke:none;stroke-width:0.172942"
       d="m 1045.6284,-321.39954 v 2.01333 c 0,0.18587 0.07,0.56081 -0.073,0.70451 -0.086,0.0856 -0.2278,0.0726 -0.3385,0.0733 l -0.6864,4e-5 c -0.9731,0 -1.9563,0.0412 -2.9284,-8.4e-4 -0.2875,-0.0124 -0.4088,-0.22408 -0.6406,-0.35572 -0.1034,-0.0587 -0.2159,-0.0651 -0.29,0.044 -0.1553,0.22876 0.284,0.51949 0.3545,0.72446 0.057,0.16642 0.027,0.37557 0.027,0.54909 v 1.14393 5.53665 c 0,0.93604 0.1461,2.01638 -0.2872,2.88273 -0.5899,1.17961 -2.1259,1.26566 -3.2362,0.85474 -0.5971,-0.22103 -1.2223,-0.7744 -1.2769,-1.44959 -0.054,-0.67229 -0.093,-1.45367 0.2143,-2.05909 0.061,-0.11986 0.1923,-0.3793 -0.038,-0.41609 -0.2057,-0.0328 -0.4758,0.27048 -0.6377,0.37245 -0.232,0.14606 -0.5121,0.16603 -0.7779,0.20725 -0.7903,0.12256 -1.5885,0.19646 -2.3794,0.31353 -0.5194,0.0769 -1.1217,0.26042 -1.6473,0.21766 -0.2639,-0.0215 -0.4699,-0.23567 -0.7321,-0.28298 0.1117,0.20979 0.2637,0.41007 0.3299,0.64061 0.07,0.24364 0.062,0.52591 0.089,0.77787 0.069,0.63202 0.1369,1.30678 0.3016,1.92182 0.1779,0.66429 0.6027,1.27432 1.1093,1.73097 0.8539,0.76979 1.9987,1.28577 3.1115,1.55279 0.3473,0.0834 0.6983,0.17629 1.0524,0.2265 0.3193,0.0453 0.6704,0.0356 0.9054,0.29025 0.5034,0.54533 0.2713,1.32789 0.1513,1.96492 -0.048,0.25551 -0.065,0.51924 -0.088,0.77788 -0.024,0.26293 0.03,0.8016 0.4033,0.76474 0.368,-0.0363 0.3862,-0.58372 0.3537,-0.85625 -0.092,-0.77154 -0.2474,-1.45872 -0.162,-2.24212 0.035,-0.32598 0.2418,-0.7492 0.6327,-0.71274 0.425,0.0397 0.7067,0.52681 0.8017,0.89577 0.2271,0.88199 -0.1713,1.81807 -0.2447,2.69969 -0.028,0.33349 0.061,1.29024 0.5849,1.17427 0.1697,-0.0375 0.2213,-0.20099 0.2569,-0.35063 0.075,-0.31314 0.065,-0.59876 0.027,-0.91515 -0.097,-0.80938 -0.3277,-1.56074 -0.3274,-2.37939 2e-4,-0.49743 0.1908,-0.98883 0.7321,-1.11954 0.3328,-0.0804 0.6979,0.0179 1.0067,0.14038 0.6354,0.25191 1.3194,0.60942 1.6247,1.2537 0.2063,0.4352 0.2493,0.94415 0.1926,1.41848 -0.017,0.13997 -0.015,0.36756 -0.1441,0.45631 -0.1823,0.12539 -0.5899,0.047 -0.8038,0.047 v 8.32785 c 0.903,0 2.0044,0.15829 2.8369,-0.27002 0.9235,-0.47507 1.0622,-1.62978 0.9346,-2.56694 -0.046,-0.33664 -0.1025,-0.6697 -0.2924,-0.96091 -0.216,-0.33126 -0.564,-0.38712 -0.8252,-0.6406 0.3925,-0.0759 0.6833,-0.4219 0.8352,-0.77788 0.2801,-0.6572 0.2819,-1.66034 -0.082,-2.28787 -0.391,-0.67514 -1.2749,-0.81772 -1.9891,-0.82363 l -0.2247,-1.32697 0.042,-2.56242 c 0.9454,-0.16281 1.6955,-0.90421 2.3336,-1.55575 v 0.86939 c 2e-4,0.10231 -0.021,0.25203 0.047,0.33845 0.071,0.0899 0.218,0.0726 0.3191,0.0733 l 0.7321,3e-5 h 3.0657 8.5567 c 1.7837,0 3.5833,0.0564 4.9869,-1.24321 1.0934,-1.01245 1.4242,-2.73033 1.2491,-4.15617 -0.069,-0.56364 -0.1807,-1.06916 -0.4956,-1.55574 -0.6917,-1.06849 -2.2038,-1.71302 -3.4525,-1.73879 v -0.0915 c 0.3628,-0.0317 0.7374,-0.19574 1.0524,-0.37308 1.6727,-0.94189 2.0478,-2.79843 1.804,-4.56872 -0.068,-0.48946 -0.1097,-0.9313 -0.3541,-1.37273 -0.3638,-0.657 -1.0126,-1.11403 -1.6787,-1.4285 -1.7093,-0.80693 -3.6975,-0.53906 -5.5367,-0.53906 h -10.3869 m 8.6024,4.02665 h 1.6015 c 0.2646,0 0.564,-0.0383 0.8236,0.0179 0.9741,0.21065 1.2947,1.94636 0.6767,2.63409 -0.4799,0.53407 -1.2694,0.4138 -1.9121,0.4138 -0.2745,0 -0.5491,0.002 -0.8237,-4e-5 -0.101,-8.5e-4 -0.2478,0.0166 -0.319,-0.0733 -0.1284,-0.16218 -0.047,-0.59837 -0.047,-0.79603 v -2.19636 m -7.0924,0.68636 v 5.67393 1.14394 l -0.047,0.47639 -0.4564,0.11845 v -5.71968 -1.23545 l 0.073,-0.45612 0.43,-10e-4 m 7.0924,4.89605 h 1.6015 c 0.2646,0 0.564,-0.0383 0.8236,0.0179 0.973,0.2104 1.295,1.94595 0.6767,2.63409 -0.4826,0.53697 -1.2656,0.4138 -1.9121,0.4138 -0.2745,0 -0.5491,0.002 -0.8237,-4e-5 -0.101,-8.5e-4 -0.2478,0.0165 -0.319,-0.0733 -0.1284,-0.16217 -0.047,-0.59837 -0.047,-0.79602 v -2.19636 m 7.55,13.63572 c -0.1522,-0.14521 -0.3071,-0.28487 -0.5033,-0.36811 -0.8319,-0.35281 -1.5239,0.22596 -1.7488,1.00871 -0.1903,0.66199 -0.1273,1.42318 -0.1273,2.10485 0,0.86026 -0.096,1.82694 0.1832,2.65393 0.2582,0.76586 0.9909,1.26843 1.7844,0.86074 0.227,-0.11665 0.3793,-0.31093 0.5491,-0.49468 l 0.091,0.54909 h 0.9151 v -8.87695 h -0.7779 l -0.3279,0.047 -0.038,0.63934 v 1.87605 m -37.4753,-2.01333 v 5.71969 c 0,0.43011 0.05,0.91072 -0.082,1.32697 -0.057,0.1797 -0.2081,0.39996 -0.4206,0.38929 -0.2036,-0.0102 -0.3444,-0.21002 -0.3935,-0.38929 -0.1079,-0.39366 -0.064,-0.83206 -0.064,-1.23546 0,-0.12323 0.036,-0.32599 -0.047,-0.42996 -0.1365,-0.17234 -0.7112,-0.0734 -0.9139,-0.0734 -0.066,0.83615 -0.3202,1.75555 0.1878,2.51663 0.6117,0.91643 2.247,0.75243 2.6994,-0.22876 0.3572,-0.77456 0.2243,-1.73299 0.2243,-2.56241 v -5.03333 h -1.1897 m 18.9893,3.56909 v -1.14394 -0.77788 c 0,-0.22343 0.1438,-0.61266 0.3798,-0.70037 0.2008,-0.0746 0.5288,0.1164 0.6624,0.25255 0.4479,0.45645 0.4312,1.69729 -0.04,2.12577 -0.273,0.24804 -0.6547,0.24383 -1.0019,0.24387 m -14.322,2.7912 c 0.02,0.2672 0.018,0.58753 -0.1307,0.82279 -0.2161,0.34242 -0.6577,0.331 -0.8763,-10e-4 -0.1711,-0.26009 -0.1714,-0.57004 -0.1845,-0.86741 -0.016,-0.36759 -0.044,-0.72841 -0.044,-1.09818 h 1.5557 c 0.1529,0 0.4375,0.0534 0.552,-0.0734 0.075,-0.0837 0.087,-0.23232 0.1063,-0.33845 0.053,-0.30031 0.074,-0.61061 0.074,-0.91515 0,-0.7975 -0.046,-1.86506 -0.9152,-2.22036 -0.1896,-0.0775 -0.3915,-0.10956 -0.5949,-0.12206 -0.1939,-0.0119 -0.4049,-0.004 -0.5948,0.0399 -0.6196,0.14243 -0.9993,0.66391 -1.1604,1.25007 -0.2413,0.87766 -0.1665,1.79703 -0.1665,2.69969 0,0.44551 -0.01,0.89048 0.097,1.32696 0.1323,0.55549 0.3408,1.15969 0.9092,1.40874 0.6514,0.28536 1.6363,0.15143 2.0687,-0.44801 0.2177,-0.30169 0.2685,-0.69046 0.3029,-1.05224 0.011,-0.11786 0.041,-0.32604 -0.066,-0.41055 -0.1774,-0.14052 -0.7321,-0.0607 -0.9332,-0.001 m 7.5042,-2.60817 c 0,-0.43432 0.1308,-1.63188 0.8686,-1.26013 0.4067,0.20488 0.321,0.79153 0.321,1.16861 0,0.1444 0.024,0.3145 -0.014,0.45507 -0.045,0.16763 -0.2074,0.21669 -0.3515,0.27755 -0.2664,0.11251 -0.5343,0.24096 -0.7779,0.39752 -0.7653,0.49205 -1.229,1.28189 -1.1361,2.21016 0.046,0.45596 0.2003,0.92981 0.5871,1.20625 0.5436,0.38852 1.5421,0.18786 1.8303,-0.42837 h 0.046 l 0.091,0.54909 h 0.8694 v -3.75212 c 0,-0.66313 0.093,-1.41162 -0.074,-2.05908 -0.261,-1.01244 -1.6482,-1.23444 -2.4888,-0.78173 -0.5411,0.29142 -0.7387,0.8398 -0.7319,1.42233 0,0.14829 -0.013,0.44577 0.1187,0.54782 0.1721,0.13382 0.6315,0.047 0.842,0.047 m 13.9102,0 h 0.9152 c 0,-0.24504 -0.013,-0.49237 0.048,-0.73212 0.1165,-0.46033 0.691,-0.82563 1.0165,-0.31945 0.072,0.11159 0.076,0.23784 0.093,0.36521 0.04,0.30146 0.096,0.70756 0.019,1.00595 -0.073,0.28282 -0.4865,0.37002 -0.7176,0.48582 -0.4842,0.24268 -0.9697,0.55407 -1.2598,1.02489 -0.5471,0.88816 -0.4365,2.68719 0.848,2.82305 0.1649,0.0174 0.3433,-0.0147 0.5033,-0.0554 0.3363,-0.0854 0.5669,-0.31001 0.8237,-0.52555 l 0.092,0.42997 0.8687,0.0734 v -4.11817 c 0,-0.65066 0.097,-1.47301 -0.2367,-2.05891 -0.5091,-0.89362 -2.1935,-0.78851 -2.7819,-0.0417 -0.3775,0.47917 -0.2745,1.08091 -0.2302,1.643 m 5.4452,-1.51 -0.091,-0.6406 -0.8681,0.0734 -0.047,0.47572 v 1.28121 4.89605 h 1.1897 v -4.57575 c 0,-0.46888 -0.089,-0.9213 0.3662,-1.20509 0.095,-0.0591 0.2059,-0.10717 0.3202,-0.0954 0.6073,0.0628 0.4576,0.98196 0.4576,1.39196 v 4.48426 h 1.1897 v -3.70636 c 0,-0.62148 0.082,-1.30944 -0.028,-1.92181 -0.044,-0.24656 -0.1138,-0.52422 -0.2615,-0.73032 -0.3333,-0.46508 -0.9923,-0.52902 -1.4949,-0.3125 -0.2997,0.12911 -0.4927,0.3782 -0.7321,0.58524 m -23.8397,0 -0.093,-0.56723 -0.8682,-0.0734 v 6.72635 h 1.1439 v -4.57575 c 0,-0.46905 -0.03,-1.33052 0.6863,-1.30165 0.6141,0.0248 0.5034,0.94317 0.5034,1.34741 v 4.52999 h 1.1896 v -3.38605 c 0,-0.73106 0.038,-1.47034 -0.053,-2.19636 -0.036,-0.2936 -0.1044,-0.58661 -0.2917,-0.82293 -0.3316,-0.41847 -0.9684,-0.46469 -1.44,-0.27095 -0.3112,0.12785 -0.5094,0.40143 -0.7779,0.59054 m 15.9236,0 h -0.046 l -0.1379,-0.56723 -0.823,-0.0734 v 6.72635 h 1.1897 v -3.84363 -1.14394 c 0,-0.17136 -0.033,-0.38574 0.027,-0.54905 0.1152,-0.31042 0.4786,-0.41873 0.6442,-0.0908 0.1436,0.28436 0.06,0.74055 0.06,1.05168 0.2006,0 0.6257,0.081 0.7904,-0.047 0.184,-0.14314 0.1702,-0.5697 0.1705,-0.7766 0,-0.40203 0.014,-0.82502 -0.2843,-1.13897 -0.5058,-0.53136 -1.3612,-0.14231 -1.5917,0.4526 m 16.8845,3.93514 c -0.201,0 -0.5843,-0.0737 -0.7544,0.047 -0.1928,0.13679 -0.161,0.52638 -0.1608,0.73085 0,0.88922 0.5583,1.38329 1.4185,1.4563 1.1637,0.0988 1.9746,-0.87982 1.7045,-2.00539 -0.2207,-0.91984 -0.93,-1.61712 -1.5032,-2.33363 -0.27,-0.33748 -0.6396,-0.76362 -0.5094,-1.23545 0.085,-0.30952 0.482,-0.52085 0.7517,-0.29679 0.1825,0.15161 0.2336,0.39433 0.2684,0.61709 0.024,0.1507 -0.025,0.39606 0.074,0.52148 0.1258,0.15884 0.7309,0.12512 0.805,-0.0707 0.192,-0.50809 0.096,-1.34833 -0.3141,-1.71696 -0.7319,-0.65723 -2.213,-0.40487 -2.5716,0.53404 -0.4723,1.2363 0.525,2.34826 1.2333,3.24878 0.2869,0.36464 1.008,1.02861 0.6626,1.55095 -0.2397,0.36265 -0.7209,0.23763 -0.9214,-0.0869 -0.1761,-0.28516 -0.1244,-0.64359 -0.1832,-0.9607 m -35.8739,-1.78454 h -0.7778 c -0.1024,-1.7e-4 -0.2521,0.0214 -0.3385,-0.047 -0.153,-0.12121 -0.069,-0.52015 -0.047,-0.68509 0.045,-0.33921 0,-0.70313 0.2022,-1.00402 0.2988,-0.4422 0.7962,-0.1339 0.9081,0.2719 0.054,0.1962 0.046,0.39489 0.072,0.59485 0.038,0.29168 -0.019,0.57621 -0.019,0.86938 m 32.1676,-1.94998 c 0.4077,-0.0634 0.6672,0.36221 0.6845,0.71453 0.054,1.10762 0,2.23122 0,3.3403 -10e-5,0.38536 -0.064,0.89739 -0.5491,0.94929 -0.482,0.0516 -0.6104,-0.48577 -0.6365,-0.85778 -0.074,-1.05077 -0.029,-2.14978 0,-3.20302 0.01,-0.34658 0.079,-0.87749 0.5027,-0.94332 m -17.6977,2.02706 c 0.1026,-0.0508 0.2493,-0.0102 0.3562,0.002 0.3344,0.0379 0.6275,0.11089 0.8126,0.42452 0.14,0.23736 0.1472,0.5554 0.1477,0.82346 0,0.5521 0.093,1.32097 -0.5034,1.61433 -0.1794,0.0882 -0.7119,0.24827 -0.8681,0.0511 -0.095,-0.1198 -0.047,-0.37865 -0.047,-0.52149 v -1.41848 c 0,-0.22864 0,-0.45772 2e-4,-0.68632 0,-0.10251 -0.01,-0.23581 0.1017,-0.28902 m -5.7301,0.65504 v 1.05242 0.68636 c 0,0.4863 -0.5679,0.82872 -0.9365,0.40571 -0.6086,-0.69828 0.089,-2.0572 0.9365,-2.14449 m 14.8254,0 v 1.05242 l -10e-5,0.68636 c 0,0.4643 -0.5553,0.81309 -0.9327,0.43205 -0.1785,-0.18019 -0.2108,-0.46559 -0.2108,-0.70659 0,-0.63983 0.444,-1.41351 1.1436,-1.46424 m -12.7203,5.33608 c -0.4392,0.10041 -0.3323,0.89554 0.1363,0.82063 0.4756,-0.076 0.3634,-0.9349 -0.1363,-0.82063 m 5.0797,0.006 c -0.4137,0.1516 -0.2373,0.95543 0.2271,0.79878 0.4589,-0.15483 0.2482,-0.97299 -0.2271,-0.79878 m 6.3136,1.56684 c -0.3091,-0.12744 -0.5721,-0.32401 -0.9072,-0.12453 -0.2611,0.15545 -0.3345,0.48708 -0.3739,0.76513 -0.084,0.58932 -0.088,1.24054 -0.01,1.8303 0.032,0.22899 0.057,0.48504 0.1887,0.68223 0.3088,0.46078 0.8181,0.2675 1.1442,-0.0416 l 0.091,0.32031 c 0.1219,-0.0242 0.3636,0.0144 0.43,-0.11203 0.1277,-0.24335 0.027,-0.75963 0.027,-1.03191 v -2.51666 c 0,-0.29199 0.1024,-0.81955 -0.027,-1.08363 -0.079,-0.15962 -0.5069,-0.15962 -0.5854,0 -0.055,0.11107 -0.027,0.27737 -0.027,0.39727 0,0.3081 -0.01,0.61118 0.046,0.91515 m -5.4452,-0.18303 v 0.50333 h 0.2746 v 1.87605 c 0,0.3114 -0.052,0.67763 0.1106,0.9589 0.2591,0.44742 1.2022,0.33513 1.0333,-0.27253 -0.1934,0.0459 -0.4123,0.0799 -0.5098,-0.13996 -0.096,-0.21717 -0.039,-0.54231 -0.039,-0.77519 v -1.64727 h 0.5033 l 0.046,-0.50333 h -0.5491 v -0.96091 c -0.1207,9e-5 -0.3248,-0.034 -0.4106,0.0734 -0.2361,0.29528 0.086,0.84601 -0.4588,0.88754 m -8.0991,-0.91515 v 4.48423 l 1.0525,0.002 0.4105,-0.0365 0.047,-0.42294 -0.796,-0.0734 -0.073,-0.33844 -10e-5,-0.68637 v -2.92847 h -0.6406 m 3.7521,1.23545 -0.046,-0.3203 c -0.1397,10e-6 -0.4003,-0.0473 -0.4758,0.10606 -0.095,0.19428 -0.027,0.55041 -0.027,0.76333 v 1.8303 c 0,0.21721 -0.076,0.61948 0.046,0.80792 0.1113,0.17069 0.4305,0.0736 0.5943,0.0615 v -1.23546 -0.82363 c 0,-0.24109 -0.066,-0.60328 0.047,-0.82293 0.1381,-0.26752 0.465,-0.32222 0.5604,0 0.072,0.2409 0.033,0.52867 0.033,0.77718 v 1.41848 c 0,0.27201 -0.1069,0.72586 0.2747,0.73053 0.4112,0.005 0.3202,-0.38295 0.3202,-0.68478 v -1.41848 c 0,-0.23226 -0.039,-0.50685 0.026,-0.73208 0.071,-0.24659 0.395,-0.48253 0.5675,-0.17805 0.1284,0.2268 0.047,0.65609 0.047,0.91013 v 0.82363 1.23546 c 0.153,0.014 0.4801,0.10371 0.5935,-0.0341 0.076,-0.0923 0.047,-0.26734 0.047,-0.37767 v -0.86939 c 0,-0.56804 0.1155,-1.28356 -0.048,-1.8303 -0.1226,-0.41064 -0.5103,-0.60845 -0.9132,-0.4277 -0.1527,0.0685 -0.2754,0.19559 -0.4118,0.29043 -0.2568,-0.59211 -0.8778,-0.33228 -1.2354,0 m 7.9618,2.19636 -0.5491,0.0458 c 0.027,0.26757 -0.1732,0.73329 -0.4929,0.44299 -0.1836,-0.16666 -0.2426,-0.66455 -0.1789,-0.89789 0.1135,-0.4161 0.8429,-0.0293 1.1018,-0.23274 0.1005,-0.079 0.1002,-0.29425 0.1113,-0.41054 0.037,-0.38374 0.053,-0.91076 -0.2045,-1.22698 -0.4394,-0.53991 -1.2619,-0.26076 -1.4887,0.31186 -0.1465,0.36986 -0.1293,0.75392 -0.1293,1.1439 0,0.53112 -0.062,1.13281 0.2502,1.59724 0.2971,0.44161 1.1049,0.44912 1.4095,0.003 0.1534,-0.22498 0.1246,-0.52038 0.1706,-0.77589 m -9.7921,-2.51667 v 3.56908 l 0.5491,0.0458 0.046,-1.23545 v -2.37939 h -0.5948 m 5.1248,0 v 2.60818 l 10e-5,0.64057 0.047,0.28457 0.5021,0.0815 0.046,-1.23545 v -2.37939 h -0.5949 m 6.0877,0.43664 c 0.236,-0.041 0.3499,0.19188 0.3621,0.387 0.036,0.57474 0,1.16285 0,1.73878 0,0.19732 0.016,0.47878 -0.2307,0.53366 -0.2777,0.0618 -0.378,-0.22309 -0.4019,-0.44214 -0.059,-0.53883 -0.042,-1.15232 0,-1.69303 0.013,-0.18677 0.043,-0.48452 0.2725,-0.52427 m -2.3766,0.0417 c 0.3834,-0.0986 0.4083,0.41966 0.407,0.66563 0,0.13512 0.014,0.30457 -0.144,0.35152 -0.4614,0.13696 -0.5725,-0.14316 -0.5158,-0.53454 0.026,-0.17973 0.039,-0.42759 0.2528,-0.48261 m -25.995,0.89443 v 0.45757 h 10.2039 2.1964 l 0.8417,-0.047 0.073,-0.41054 h -13.3154 m 31.2523,0 0.073,0.41054 0.8417,0.047 h 2.1964 10.2039 v -0.45757 z"
       id="path2" /></g></svg>
